<svg xmlns="http://www.w3.org/2000/svg" viewBox="0 0 860 600" role="img" aria-label="AI interview knowledge map">
  <defs>
    <linearGradient id="bg" x1="0" y1="0" x2="1" y2="1">
      <stop offset="0" stop-color="#0f172a"/>
      <stop offset="0.58" stop-color="#115e59"/>
      <stop offset="1" stop-color="#1d4ed8"/>
    </linearGradient>
    <filter id="shadow" x="-20%" y="-20%" width="140%" height="140%">
      <feDropShadow dx="0" dy="16" stdDeviation="18" flood-color="#020617" flood-opacity=".32"/>
    </filter>
  </defs>
  <rect x="45" y="52" width="770" height="492" rx="28" fill="url(#bg)" filter="url(#shadow)"/>
  <g fill="none" stroke="#94a3b8" stroke-width="2" opacity=".54">
    <path d="M208 190h214M422 190l144 84M422 190l-32 156M566 274l-174 72M392 346l238 42"/>
  </g>
  <g font-family="IBM Plex Sans, Microsoft YaHei, sans-serif" font-weight="700">
    <rect x="128" y="142" width="210" height="96" rx="16" fill="#f8fafc"/>
    <text x="158" y="184" font-size="24" fill="#0f172a">Transformer</text>
    <text x="158" y="212" font-size="15" fill="#475569">attention / encoder / decoder</text>
    <rect x="430" y="120" width="230" height="96" rx="16" fill="#ccfbf1"/>
    <text x="462" y="162" font-size="24" fill="#134e4a">LoRA</text>
    <text x="462" y="190" font-size="15" fill="#0f766e">rank / alpha / target modules</text>
    <rect x="528" y="250" width="214" height="96" rx="16" fill="#dbeafe"/>
    <text x="560" y="292" font-size="24" fill="#1e3a8a">vLLM</text>
    <text x="560" y="320" font-size="15" fill="#2563eb">paged attention / batch</text>
    <rect x="246" y="326" width="246" height="104" rx="16" fill="#ecfeff"/>
    <text x="278" y="372" font-size="25" fill="#155e75">RAG</text>
    <text x="278" y="402" font-size="15" fill="#0e7490">dense + sparse + rerank</text>
    <rect x="552" y="382" width="164" height="70" rx="16" fill="#fef3c7"/>
    <text x="590" y="426" font-size="22" fill="#92400e">Agent</text>
  </g>
</svg>
